<svg id="svg" version="1.1" width="4096" height="4096" xmlns="http://www.w3.org/2000/svg" xmlns:xlink="http://www.w3.org/1999/xlink" ><g id="svgg"><path id="path0" d="M35.986 0.067 C 17.223 1.702,2.652 15.662,0.226 34.326 C -0.051 36.464,-0.051 363.536,0.226 365.674 C 2.571 383.714,16.286 397.429,34.326 399.774 C 36.464 400.051,363.536 400.051,365.674 399.774 C 383.716 397.429,397.429 383.716,399.774 365.674 C 400.051 363.536,400.051 36.464,399.774 34.326 C 397.446 16.416,384.078 2.910,366.064 0.268 L 364.600 0.053 200.488 0.043 C 110.227 0.037,36.201 0.048,35.986 0.067 M124.414 93.360 C 145.646 94.177,159.706 98.267,168.681 106.235 C 179.042 115.435,184.064 134.207,183.489 161.587 C 182.973 186.139,177.704 202.255,167.528 210.405 C 159.327 216.974,147.296 220.694,130.762 221.775 C 120.535 222.443,99.302 222.004,81.055 220.748 C 76.338 220.423,68.493 219.788,67.847 219.679 L 67.578 219.634 67.578 262.991 L 67.578 306.348 57.617 306.348 L 47.656 306.348 47.656 201.035 L 47.656 95.721 48.120 95.663 C 52.861 95.061,68.873 94.147,81.543 93.753 C 94.733 93.343,118.350 93.127,124.414 93.360 M282.715 95.508 C 306.285 95.661,321.637 95.941,336.182 96.485 C 343.193 96.748,352.127 97.211,352.233 97.318 C 352.256 97.341,352.003 100.755,351.672 104.905 C 351.341 109.055,351.071 112.484,351.072 112.523 C 351.073 112.563,331.178 112.608,306.860 112.624 C 265.211 112.651,262.581 112.663,261.523 112.825 C 251.350 114.383,246.426 119.988,245.293 131.299 C 245.192 132.308,245.166 138.086,245.166 159.473 L 245.166 186.377 292.163 186.401 L 339.160 186.426 339.160 194.531 L 339.160 202.637 292.139 202.637 L 245.117 202.637 245.119 235.083 C 245.121 267.314,245.146 270.092,245.458 272.510 C 246.830 283.148,252.677 288.705,263.281 289.449 C 264.209 289.515,279.596 289.549,307.886 289.550 C 331.639 289.550,351.073 289.584,351.072 289.624 C 351.071 289.664,351.341 293.093,351.672 297.243 C 352.003 301.394,352.257 304.806,352.236 304.827 C 352.154 304.906,342.817 305.383,336.816 305.614 C 316.798 306.386,264.244 307.004,258.198 306.540 C 239.670 305.116,227.474 294.154,225.227 276.904 C 224.991 275.095,224.944 127.756,225.178 125.635 C 227.021 108.952,238.727 97.753,256.416 95.750 C 259.582 95.391,261.694 95.372,282.715 95.508 M96.094 110.513 C 85.955 110.632,71.050 110.897,68.872 110.996 L 67.578 111.055 67.578 157.876 L 67.578 204.698 94.409 204.658 C 112.670 204.630,121.771 204.583,122.900 204.509 C 143.832 203.135,153.905 197.999,158.748 186.230 C 164.716 171.727,164.509 141.832,158.342 127.837 C 153.638 117.160,144.375 112.213,126.221 110.679 C 124.382 110.524,104.486 110.414,96.094 110.513 " stroke="none" fill="#000000" fill-rule="evenodd"></path></g></svg>